<svg width="50" height="50" viewBox="0 0 50 50" fill="none" xmlns="http://www.w3.org/2000/svg">
<g clip-path="url(#clip0_47_141)">
<rect width="45" height="45" rx="10" transform="matrix(-1 0 0 1 48 2)" fill="#040A17"/>
<path d="M24.9998 14.7957L35.2039 24.9998M35.2039 24.9998L24.9998 35.2039M35.2039 24.9998L14.7957 24.9998M2.04062 35.7141L2.04062 14.2855C2.04062 9.9994 2.04062 7.85634 2.87475 6.21926C3.60848 4.77925 4.77925 3.60847 6.21927 2.87475C7.85634 2.04062 9.9994 2.04062 14.2855 2.04062L35.7141 2.04062C40.0002 2.04062 42.1433 2.04062 43.7803 2.87475C45.2204 3.60848 46.3911 4.77925 47.1249 6.21926C47.959 7.85634 47.959 9.9994 47.959 14.2855L47.959 35.7141C47.959 40.0002 47.959 42.1433 47.1249 43.7803C46.3911 45.2204 45.2204 46.3911 43.7803 47.1249C42.1433 47.959 40.0002 47.959 35.7141 47.959L14.2855 47.959C9.9994 47.959 7.85634 47.959 6.21926 47.1248C4.77925 46.3911 3.60848 45.2204 2.87475 43.7803C2.04062 42.1433 2.04062 40.0002 2.04062 35.7141Z" stroke="#FFBC48" stroke-width="3.33333" stroke-linecap="round" stroke-linejoin="round"/>
</g>
<defs>
<clipPath id="clip0_47_141">
<rect width="50" height="50" fill="white" transform="matrix(-1 0 0 1 50 0)"/>
</clipPath>
</defs>
</svg>
