<svg width="50" height="50" viewBox="0 0 50 50" fill="none" xmlns="http://www.w3.org/2000/svg">
<g clip-path="url(#clip0_47_138)">
<rect x="2" y="2" width="45" height="45" rx="10" fill="#040A17"/>
<path d="M25.0002 14.7957L14.7961 24.9998M14.7961 24.9998L25.0002 35.2039M14.7961 24.9998L35.2043 24.9998M47.9594 35.7141L47.9594 14.2855C47.9594 9.9994 47.9594 7.85634 47.1252 6.21926C46.3915 4.77925 45.2208 3.60847 43.7807 2.87475C42.1437 2.04062 40.0006 2.04062 35.7145 2.04062L14.2859 2.04062C9.9998 2.04062 7.85674 2.04062 6.21966 2.87475C4.77964 3.60848 3.60887 4.77925 2.87515 6.21926C2.04101 7.85634 2.04101 9.9994 2.04101 14.2855L2.04102 35.7141C2.04102 40.0002 2.04102 42.1433 2.87515 43.7803C3.60887 45.2204 4.77964 46.3911 6.21966 47.1249C7.85674 47.959 9.9998 47.959 14.2859 47.959L35.7145 47.959C40.0006 47.959 42.1437 47.959 43.7807 47.1248C45.2208 46.3911 46.3915 45.2204 47.1252 43.7803C47.9594 42.1433 47.9594 40.0002 47.9594 35.7141Z" stroke="#FFBC48" stroke-width="3.33333" stroke-linecap="round" stroke-linejoin="round"/>
</g>
<defs>
<clipPath id="clip0_47_138">
<rect width="50" height="50" fill="white"/>
</clipPath>
</defs>
</svg>
