<svg width="32" height="31" viewBox="0 0 32 31" fill="none" xmlns="http://www.w3.org/2000/svg">
<g clip-path="url(#clip0_47_104)">
<path d="M16 0C7.16346 3.1786e-05 3.28113e-05 6.9396 0 15.5C3.37144e-05 24.0604 7.16346 31 16 31C24.8365 31 32 24.0604 32 15.5C32 6.9396 24.8365 3.26608e-05 16 0ZM24.2881 6.96173C24.9381 6.93877 25.4302 7.5088 25.1665 8.53315L21.9963 23.0068C21.775 24.0354 21.1331 24.2815 20.2443 23.8065L15.4144 20.3492C14.28 21.4177 13.2638 22.3747 13.0927 22.5369C12.8236 22.7916 12.6093 23.0051 12.1261 23.0051C11.5001 23.0051 11.6066 22.7756 11.3906 22.198L9.61388 16.9216L4.97038 15.5171C3.93883 15.2109 3.93133 14.5244 5.20203 14.0305L23.8201 7.07393C23.9795 7.00383 24.1381 6.96703 24.2881 6.96173ZM21.3349 10.0402C21.1949 10.0383 21.0046 10.0868 20.8087 10.202L10.3429 16.5987L12.1061 21.8369L12.4554 18.2316L21.4172 10.3985C21.663 10.1871 21.5682 10.0433 21.3349 10.0402Z" fill="#864A1E"/>
</g>
<defs>
<clipPath id="clip0_47_104">
<rect width="32" height="31" fill="white"/>
</clipPath>
</defs>
</svg>
